<svg width="230" height="58" viewBox="0 0 230 58" fill="none" xmlns="http://www.w3.org/2000/svg">
<path fill-rule="evenodd" clip-rule="evenodd" d="M73.8469 25.5435H92.5075C93.7608 25.5435 94.7825 26.5602 94.7825 27.8549C94.7825 29.1037 93.7608 30.1208 92.5075 30.1208H85.4519V55.6884C85.4519 56.9827 84.4307 57.9998 83.1774 57.9998C81.8779 57.9998 80.8562 56.9827 80.8562 55.6884V30.1208H73.8469C72.5473 30.1208 71.5261 29.1037 71.5261 27.8549C71.5261 26.5602 72.5473 25.5435 73.8469 25.5435Z" fill="#2ADB86"/>
<path fill-rule="evenodd" clip-rule="evenodd" d="M114.604 46.5337C114.604 42.6502 111.633 39.3676 107.734 39.3676C103.835 39.3676 100.539 42.6502 100.539 46.5337C100.539 50.4171 103.835 53.3764 107.734 53.3764C111.633 53.3764 114.604 50.4171 114.604 46.5337ZM119.153 46.5338V55.5959C119.153 56.9367 118.178 57.9078 116.832 57.9078C115.903 57.9078 114.604 56.9367 114.604 55.5959C112.608 57.2604 110.379 57.9078 107.734 57.9078C101.189 57.9078 95.9895 53.0533 95.9895 46.5338C95.9895 40.0151 101.189 34.8364 107.734 34.8364C114.279 34.8364 119.153 40.0151 119.153 46.5338Z" fill="#2ADB86"/>
<path fill-rule="evenodd" clip-rule="evenodd" d="M139.391 37.056C139.391 38.3042 138.37 39.3679 137.07 39.3679C133.171 39.3679 130.014 42.5114 130.014 46.3953V55.6886C130.014 56.9369 128.993 58.0001 127.74 58.0001C126.44 58.0001 125.418 56.9369 125.418 55.6886V46.3953C125.418 39.9688 130.665 34.7905 137.07 34.7905C138.37 34.7905 139.391 35.8077 139.391 37.056Z" fill="#2ADB86"/>
<path fill-rule="evenodd" clip-rule="evenodd" d="M163.714 57.3065C163.297 57.6767 162.786 57.8609 162.275 57.8609C161.579 57.8609 160.929 57.5837 160.511 57.0293L151.691 46.4877L150.252 47.4584V55.5495C150.252 56.8438 149.185 57.8609 147.932 57.8609C146.678 57.8609 145.657 56.8438 145.657 55.5495V46.2566V25.5892C145.657 24.3414 146.678 23.3242 147.932 23.3242C149.185 23.3242 150.252 24.3414 150.252 25.5892V42.0494L160.79 35.1602C161.765 34.3742 163.204 34.4663 164.039 35.4378C164.828 36.4089 164.689 37.8883 163.714 38.6739L155.591 43.9907L164.039 54.1161C164.828 55.0876 164.689 56.521 163.714 57.3065Z" fill="#2ADB86"/>
<path fill-rule="evenodd" clip-rule="evenodd" d="M189.617 37.056V48.6607V48.7068C189.57 53.839 185.393 58.0001 180.194 58.0001C175.041 58.0001 170.863 53.839 170.816 48.7068V48.6607V37.056C170.816 35.8077 171.838 34.7905 173.091 34.7905C174.391 34.7905 175.413 35.8077 175.413 37.056V48.6147C175.413 51.2499 177.547 53.4228 180.194 53.4228C182.886 53.4228 185.021 51.2499 185.021 48.6147V37.056C185.021 35.8077 186.042 34.7905 187.342 34.7905C188.595 34.7905 189.617 35.8077 189.617 37.056Z" fill="#2ADB86"/>
<path fill-rule="evenodd" clip-rule="evenodd" d="M209.855 51.0187C209.855 54.8561 206.745 58.0001 202.892 58.0001C199.596 58.0001 196.95 55.6421 196.068 52.9605C195.651 51.7586 196.625 50.5104 197.832 50.2327C199.086 50.0016 199.968 50.8801 200.571 52.0359C201.22 53.2381 201.778 53.4228 202.892 53.4228C204.192 53.4228 205.259 52.36 205.259 51.0187C205.259 49.7244 204.192 48.6607 202.892 48.6607C201.035 48.6607 199.271 47.9212 197.971 46.6265C196.625 45.3321 195.929 43.575 195.929 41.7258C195.929 37.8884 199.039 34.7905 202.892 34.7905C206.141 34.7905 209.112 37.0099 209.576 39.599C209.809 40.8473 209.066 42.0956 207.812 42.3268C206.559 42.6044 205.492 41.7715 205.073 40.6162C204.795 39.8762 204.006 39.3679 202.892 39.3679C201.592 39.3679 200.525 40.4311 200.525 41.7258C200.525 43.0202 201.592 44.0834 202.892 44.0834C204.749 44.0834 206.512 44.8233 207.812 46.1177C209.159 47.4585 209.855 49.1695 209.855 51.0187Z" fill="#2ADB86"/>
<path fill-rule="evenodd" clip-rule="evenodd" d="M230 51.0187C230 54.8561 226.89 58.0001 223.037 58.0001C219.741 58.0001 217.095 55.6421 216.213 52.9605C215.796 51.7586 216.77 50.5104 217.977 50.2327C219.231 50.0016 220.113 50.8801 220.716 52.0359C221.366 53.2381 221.923 53.4228 223.037 53.4228C224.336 53.4228 225.404 52.36 225.404 51.0187C225.404 49.7244 224.336 48.6607 223.037 48.6607C221.18 48.6607 219.417 47.9212 218.117 46.6265C216.77 45.3321 216.074 43.575 216.074 41.7258C216.074 37.8884 219.184 34.7905 223.037 34.7905C226.286 34.7905 229.257 37.0099 229.722 39.599C229.954 40.8473 229.211 42.0956 227.958 42.3268C226.704 42.6044 225.636 41.7715 225.219 40.6162C224.94 39.8762 224.151 39.3679 223.037 39.3679C221.737 39.3679 220.67 40.4311 220.67 41.7258C220.67 43.0202 221.737 44.0834 223.037 44.0834C224.894 44.0834 226.658 44.8233 227.958 46.1177C229.304 47.4585 230 49.1695 230 51.0187Z" fill="#2ADB86"/>
<path fill-rule="evenodd" clip-rule="evenodd" d="M57.8277 24.1429C56.6936 23.195 55.2316 22.6271 53.6397 22.6271C52.2239 22.6271 50.9176 23.0763 49.8463 23.8391C47.5226 14.5918 39.1072 7.72622 29.1203 7.72622C17.2132 7.72622 7.54155 17.4852 7.76005 29.4002C7.95564 39.9785 16.046 48.5517 26.2883 50.0409C26.2815 50.1499 26.2786 50.2589 26.2786 50.3709V54.7898C26.2786 55.9295 26.5739 56.9961 27.0876 57.927C19.4682 57.4055 12.6476 53.951 7.75665 48.6903C2.63402 43.1749 -0.376592 35.6847 0.0379194 27.5049C0.787604 12.7392 12.7966 0.781182 27.6214 0.0378709C35.831 -0.374986 43.358 2.6139 48.8853 7.72622C53.5005 11.9833 56.7335 17.7066 57.8277 24.1429Z" fill="#2ADB86"/>
<path fill-rule="evenodd" clip-rule="evenodd" d="M56.8659 29.1398V54.7901C56.8659 56.5633 55.4204 58 53.6397 58C51.8591 58 50.417 56.5633 50.417 54.7901V29.1398C50.417 28.9285 50.4369 28.7206 50.4764 28.5219C50.7649 27.0459 52.0712 25.9294 53.6397 25.9294C55.4204 25.9294 56.8659 27.3662 56.8659 29.1398Z" fill="#076B40"/>
<path fill-rule="evenodd" clip-rule="evenodd" d="M46.6439 42.7489V54.7898C46.6439 56.5629 45.2018 57.9997 43.4207 57.9997C42.5323 57.9997 41.7232 57.6396 41.1428 57.0586C40.5595 56.4805 40.198 55.6746 40.198 54.7898V42.7489C40.198 40.9758 41.6405 39.5386 43.4207 39.5386C45.2018 39.5386 46.6439 40.9758 46.6439 42.7489Z" fill="#076B40"/>
<path fill-rule="evenodd" clip-rule="evenodd" d="M36.0431 50.3708V54.7897C36.0431 56.5628 34.601 57.9995 32.82 57.9995C31.0397 57.9995 29.5942 56.5628 29.5942 54.7897V50.3708C29.5942 50.3378 29.5942 50.3049 29.5976 50.2719C29.6473 48.5448 31.0728 47.1609 32.82 47.1609C34.5675 47.1609 35.9901 48.5448 36.0397 50.2719C36.0431 50.3049 36.0431 50.3378 36.0431 50.3708Z" fill="#076B40"/>
</svg>
